<?xml version="1.0" encoding="UTF-8"?>
<svg version="1.1" xmlns="http://www.w3.org/2000/svg" width="640" height="640">
<path d="M0 0 C211.2 0 422.4 0 640 0 C640 211.2 640 422.4 640 640 C428.8 640 217.6 640 0 640 C0 428.8 0 217.6 0 0 Z " fill="#FEFEFE" transform="translate(0,0)"/>
<path d="M0 0 C5.53149866 3.61225836 9.69661044 7.83082343 13.6875 13.0625 C14.19152344 13.71863281 14.69554687 14.37476563 15.21484375 15.05078125 C16.97132483 17.42839477 18.54547617 19.76267192 19.8125 22.4375 C20.64555711 24.4292772 20.64555711 24.4292772 23.6875 25.0625 C23.6875 24.4025 23.6875 23.7425 23.6875 23.0625 C24.3475 23.0625 25.0075 23.0625 25.6875 23.0625 C27.29278347 17.60714643 28.13674972 10.39577436 25.828125 5.0859375 C24.84530341 3.69716786 23.7702153 2.37488218 22.6875 1.0625 C22.1925 -0.9175 22.1925 -0.9175 21.6875 -2.9375 C31.5875 -2.9375 41.4875 -2.9375 51.6875 -2.9375 C51.6875 2.75619715 51.22742207 5.17079823 48.6875 10.0625 C47.6975 10.7225 46.7075 11.3825 45.6875 12.0625 C45.23375 12.866875 44.78 13.67125 44.3125 14.5 C42.41861985 17.48650332 40.72630892 18.32603776 37.6875 20.0625 C36.90375 20.8875 36.12 21.7125 35.3125 22.5625 C32.20200625 25.524875 29.67833485 26.57571839 25.6875 28.0625 C24.91027499 34.12485507 27.3726725 38.20378024 30.6875 43.0625 C31.5125 43.8875 32.3375 44.7125 33.1875 45.5625 C36.06718536 48.44218536 37.69682317 51.3929996 39.57421875 54.9765625 C40.75185126 57.26475818 40.75185126 57.26475818 42.6875 60.0625 C45.33441668 60.86342254 45.33441668 60.86342254 48.3125 61.25 C49.31539063 61.40855469 50.31828125 61.56710937 51.3515625 61.73046875 C52.12242187 61.84003906 52.89328125 61.94960938 53.6875 62.0625 C53.68305878 61.50175278 53.67861755 60.94100555 53.67404175 60.36326599 C53.62966285 54.50677041 53.59957327 48.6503229 53.57763672 42.79370117 C53.56760308 40.61041319 53.5539731 38.42713857 53.53662109 36.24389648 C53.51225687 33.09876195 53.50099029 29.95380571 53.4921875 26.80859375 C53.48186493 25.8385289 53.47154236 24.86846405 53.46090698 23.8690033 C53.4594777 15.16031775 54.70193726 9.28250721 60.734375 2.73046875 C63.61510593 0.27032454 65.98203024 -0.33252535 69.6875 -0.9375 C69.6875 -1.5975 69.6875 -2.2575 69.6875 -2.9375 C73.56243616 -2.99584395 77.43725836 -3.03121201 81.3125 -3.0625 C82.95412109 -3.08763672 82.95412109 -3.08763672 84.62890625 -3.11328125 C95.22236626 -3.17748404 95.22236626 -3.17748404 99.6875 -0.9375 C100.6775 0.5475 100.6775 0.5475 101.6875 2.0625 C102.615625 2.51625 103.54375 2.97 104.5 3.4375 C108.75814626 5.60831966 111.58535242 8.17310414 114 12.3125 C115.37775206 17.82350825 115.10439765 23.57202163 113.6875 29.0625 C112.6975 29.3925 111.7075 29.7225 110.6875 30.0625 C110.006875 30.949375 109.32625 31.83625 108.625 32.75 C104.62295661 37.80135964 98.09079188 41.98060786 91.6875 43.0625 C90.10538427 43.12798492 88.52079919 43.14828381 86.9375 43.125 C86.13828125 43.11597656 85.3390625 43.10695313 84.515625 43.09765625 C83.91234375 43.08605469 83.3090625 43.07445312 82.6875 43.0625 C83.8321875 41.94875 83.8321875 41.94875 85 40.8125 C89.1395018 36.57673071 91.11712547 34.39163882 91.125 28.3125 C90.89811149 20.53211475 88.58428552 15.86076952 83.3125 10.25 C77.65827756 5.01416611 73.27312066 3.72135246 65.6640625 3.95703125 C65.01179688 3.99183594 64.35953125 4.02664063 63.6875 4.0625 C63.666875 5.320625 63.64625 6.57875 63.625 7.875 C63.61339844 8.58269531 63.60179687 9.29039062 63.58984375 10.01953125 C63.60486783 12.26555461 63.60486783 12.26555461 64.6875 15.0625 C66.34447379 15.75290574 68.0130761 16.4155635 69.6875 17.0625 C72.5 19.0625 72.5 19.0625 74.6875 21.0625 C74.6875 21.7225 74.6875 22.3825 74.6875 23.0625 C75.3475 23.0625 76.0075 23.0625 76.6875 23.0625 C77.87445418 25.43640836 77.80825833 26.86494951 77.80102539 29.51220703 C77.80091209 30.89341232 77.80091209 30.89341232 77.80079651 32.30252075 C77.79563522 33.29839203 77.79047394 34.29426331 77.78515625 35.3203125 C77.7837413 36.33850067 77.78232635 37.35668884 77.78086853 38.4057312 C77.775259 41.66635035 77.76270488 44.92690151 77.75 48.1875 C77.74498623 50.39453026 77.74042311 52.60156159 77.73632812 54.80859375 C77.72613622 60.22660994 77.70656262 65.64447862 77.6875 71.0625 C70.0975 71.0625 62.5075 71.0625 54.6875 71.0625 C54.6875 69.4125 54.6875 67.7625 54.6875 66.0625 C54.23503906 66.4234375 53.78257812 66.784375 53.31640625 67.15625 C47.8840567 70.85312304 43.2852038 71.53273644 36.875 71.5 C36.13386963 71.49742187 35.39273926 71.49484375 34.62915039 71.4921875 C30.86621841 71.38957374 27.88073488 71.14941728 24.6875 69.0625 C24.6875 68.4025 24.6875 67.7425 24.6875 67.0625 C24.08067383 66.95671631 23.47384766 66.85093262 22.84863281 66.74194336 C19.28185578 65.62057638 17.57255872 62.52656963 15.4375 59.625 C14.74914062 58.7268457 14.74914062 58.7268457 14.046875 57.81054688 C10.6875 53.34637742 10.6875 53.34637742 10.6875 51.0625 C10.0275 51.0625 9.3675 51.0625 8.6875 51.0625 C8.03915346 49.792947 7.39392185 48.52180294 6.75 47.25 C6.21052734 46.18845703 6.21052734 46.18845703 5.66015625 45.10546875 C4.6875 43.0625 4.6875 43.0625 3.6875 40.0625 C0.56964887 40.70894661 0.56964887 40.70894661 -0.3125 43.0625 C-1.08799952 51.30495199 -0.80384786 57.79774261 3.49609375 64.9765625 C4.6875 67.0625 4.6875 67.0625 5.6875 71.0625 C-4.2125 71.0625 -14.1125 71.0625 -24.3125 71.0625 C-24.3125 64.29470974 -24.3125 64.29470974 -22.5 60.5 C-22.13519531 59.73558594 -21.77039063 58.97117187 -21.39453125 58.18359375 C-17.91571384 51.36410692 -17.91571384 51.36410692 -15.3125 50.0625 C-14.88324219 49.31613281 -14.45398438 48.56976563 -14.01171875 47.80078125 C-12.07324403 44.67694038 -9.8930365 42.65855124 -7.125 40.25 C-6.22394531 39.45980469 -5.32289063 38.66960937 -4.39453125 37.85546875 C-3.70746094 37.26378906 -3.02039063 36.67210937 -2.3125 36.0625 C-2.62316406 35.30324219 -2.93382812 34.54398437 -3.25390625 33.76171875 C-4.3125 31.0625 -4.3125 31.0625 -5.25 27.875 C-6.10794031 24.77830257 -6.10794031 24.77830257 -9.3125 23.0625 C-9.3125 21.7425 -9.3125 20.4225 -9.3125 19.0625 C-9.9725 19.0625 -10.6325 19.0625 -11.3125 19.0625 C-12.90476248 16.8924737 -14.26981902 14.61617772 -15.6796875 12.32421875 C-17.85402823 9.31239271 -19.78914285 7.42666019 -23.453125 6.55078125 C-25.40625 6.38802083 -27.359375 6.22526042 -29.3125 6.0625 C-28.74697641 2.78246319 -27.98417078 1.08928473 -25.3125 -0.9375 C-16.60428177 -4.28873134 -8.29374448 -4.54106162 0 0 Z " fill="#0A0A0A" transform="translate(430.3125,284.9375)"/>
<path d="M0 0 C6.6 -0.0825 13.2 -0.165 20 -0.25 C22.06765625 -0.28641602 24.1353125 -0.32283203 26.265625 -0.36035156 C27.92707281 -0.37204745 29.58853219 -0.38223714 31.25 -0.390625 C32.09433594 -0.41108887 32.93867188 -0.43155273 33.80859375 -0.45263672 C40.8204917 -0.4567134 46.06974549 1.35683123 51.3125 6.0859375 C56.55076246 13.19154353 57.1510495 19.33016843 56 28 C54.7781479 33.26406956 51.71292086 37.1965201 48 41 C45.6875 41.875 45.6875 41.875 44 42 C44 42.66 44 43.32 44 44 C41.03 44.495 41.03 44.495 38 45 C39.5980458 48.29686926 41.46810334 51.34161331 43.43359375 54.43359375 C44.67704326 56.47086639 45.86750939 58.51709234 47.03515625 60.59765625 C47.39013184 61.22945801 47.74510742 61.86125977 48.11083984 62.51220703 C48.82280831 63.78535517 49.53025033 65.06104625 50.23291016 66.33935547 C52.00459405 69.76001049 52.00459405 69.76001049 55 72 C55.72693904 73.97888961 56.39816251 75.97954558 57 78 C53.5912072 76.6015209 52.12606165 75.14993067 50.25 72 C49.82203125 71.29875 49.3940625 70.5975 48.953125 69.875 C48 68 48 68 48 66 C47.01 65.67 46.02 65.34 45 65 C44.33950777 63.43567631 43.68004486 61.87091293 43.0246582 60.30444336 C40.61610709 54.88764232 38.35932741 50.13121183 34 46 C28.4210965 44.36954187 23.31604456 44.54236791 17.5 44.75 C9.8275 44.87375 9.8275 44.87375 2 45 C2 55.89 2 66.78 2 78 C1.34 78 0.68 78 0 78 C0 52.26 0 26.52 0 0 Z " fill="#FAFAFA" transform="translate(188,282)"/>
<path d="M0 0 C1.97265625 0.05834961 1.97265625 0.05834961 4 1 C5.30859375 3.18969727 5.30859375 3.18969727 6.4375 6.06640625 C7.06785156 7.63165039 7.06785156 7.63165039 7.7109375 9.22851562 C8.34902344 10.87883789 8.34902344 10.87883789 9 12.5625 C9.85153154 14.71068184 10.70565054 16.85784004 11.5625 19.00390625 C11.97363037 20.03700928 12.38476074 21.0701123 12.80834961 22.13452148 C14.10039512 25.24141314 15.55645112 28.2143223 17.10205078 31.20043945 C18.57849857 34.15935643 19.74277307 37.23136212 20.9375 40.3125 C23.05887957 45.72037263 25.32433558 51.02344946 27.7734375 56.29296875 C29.59133459 60.3050792 31.23712401 64.38506271 32.88671875 68.46875 C33.98628275 71.16660189 33.98628275 71.16660189 36 74 C36 75.32 36 76.64 36 78 C35.01 78 34.02 78 33 78 C32.82984375 77.43152344 32.6596875 76.86304688 32.484375 76.27734375 C31.26801958 72.40182835 30.0298202 68.80753674 27.9375 65.3125 C26 62 26 62 24 56 C8.82 56 -6.36 56 -22 56 C-23.32 59.63 -24.64 63.26 -26 67 C-27.02398743 69.09259817 -28.09414349 71.16475111 -29.25 73.1875 C-29.77078125 74.10917969 -30.2915625 75.03085937 -30.828125 75.98046875 C-31.21484375 76.64691406 -31.6015625 77.31335938 -32 78 C-32.66 77.67 -33.32 77.34 -34 77 C-32.73638364 73.76796313 -31.46283666 70.53992816 -30.1875 67.3125 C-29.83107422 66.40048828 -29.47464844 65.48847656 -29.10742188 64.54882812 C-27.346795 60.10687958 -25.48612043 56.08630292 -23 52 C-22.01551716 49.50707988 -21.08238833 47.02394294 -20.1875 44.5 C-17.50375094 37.1384502 -14.37260872 30.07425244 -11 23 C-8.08704853 16.73504351 -5.32678345 10.46484961 -2.89453125 3.99609375 C-2 2 -2 2 0 0 Z " fill="#F9F9F9" transform="translate(280,282)"/>
<path d="M0 0 C3.87493616 -0.05834395 7.74975836 -0.09371201 11.625 -0.125 C13.26662109 -0.15013672 13.26662109 -0.15013672 14.94140625 -0.17578125 C25.53486626 -0.23998404 25.53486626 -0.23998404 30 2 C30.66 2.99 31.32 3.98 32 5 C32.928125 5.45375 33.85625 5.9075 34.8125 6.375 C39.07064626 8.54581966 41.89785242 11.11060414 44.3125 15.25 C45.69025206 20.76100825 45.41689765 26.50952163 44 32 C42.515 32.495 42.515 32.495 41 33 C40.319375 33.886875 39.63875 34.77375 38.9375 35.6875 C34.93545661 40.73885964 28.40329188 44.91810786 22 46 C20.41788427 46.06548492 18.83329919 46.08578381 17.25 46.0625 C16.45078125 46.05347656 15.6515625 46.04445313 14.828125 46.03515625 C14.22484375 46.02355469 13.6215625 46.01195312 13 46 C13.763125 45.2575 14.52625 44.515 15.3125 43.75 C19.4520018 39.51423071 21.42962547 37.32913882 21.4375 31.25 C21.21061149 23.46961475 18.89678552 18.79826952 13.625 13.1875 C7.97077756 7.95166611 3.58562066 6.65885246 -4.0234375 6.89453125 C-4.67570312 6.92933594 -5.32796875 6.96414063 -6 7 C-6.020625 8.27875 -6.04125 9.5575 -6.0625 10.875 C-6.07410156 11.59429687 -6.08570313 12.31359375 -6.09765625 13.0546875 C-6.12649242 15.08185404 -6.12649242 15.08185404 -5 17 C-5.99 16.67 -6.98 16.34 -8 16 C-8.33 15.34 -8.66 14.68 -9 14 C-9.99 13.67 -10.98 13.34 -12 13 C-12.74193424 16.33214271 -13.13390726 19.43900503 -13.17358398 22.8503418 C-13.18707382 23.7844841 -13.20056366 24.7186264 -13.21446228 25.68107605 C-13.22490067 26.67706314 -13.23533905 27.67305023 -13.24609375 28.69921875 C-13.27900502 30.81575977 -13.31221709 32.93229612 -13.34570312 35.04882812 C-13.39328444 38.38025995 -13.4377831 41.71166933 -13.47680664 45.04321289 C-13.5163585 48.26207098 -13.56791142 51.48056116 -13.62109375 54.69921875 C-13.6295079 55.70127853 -13.63792206 56.70333832 -13.64659119 57.73576355 C-13.67155418 59.12279228 -13.67155418 59.12279228 -13.69702148 60.5378418 C-13.70732895 61.3532695 -13.71763641 62.1686972 -13.72825623 63.00883484 C-14 65 -14 65 -16 67 C-19.4375 67.3125 -19.4375 67.3125 -23 67 C-23.99 66.01 -24.98 65.02 -26 64 C-22.7 64.33 -19.4 64.66 -16 65 C-16.01047363 63.64318115 -16.02094727 62.2863623 -16.03173828 60.88842773 C-16.06804336 55.83604591 -16.09093874 50.78367553 -16.10986328 45.73120117 C-16.11989692 43.54791319 -16.1335269 41.36463857 -16.15087891 39.18139648 C-16.17524313 36.03626195 -16.18650971 32.89130571 -16.1953125 29.74609375 C-16.20563507 28.7760289 -16.21595764 27.80596405 -16.22659302 26.8065033 C-16.2280223 18.09781775 -14.98556274 12.22000721 -8.953125 5.66796875 C-6.07239407 3.20782454 -3.70546976 2.60497465 0 2 C0 1.34 0 0.68 0 0 Z " fill="#0B0B0B" transform="translate(500,282)"/>
<path d="M0 0 C2.27402457 0.3920732 3.6621624 0.66115992 5.31640625 2.3203125 C8.13468554 5.13205286 11.528339 7.16040237 14.8203125 9.37890625 C17 11 17 11 18 13 C18.08963847 14.48100811 18.11757925 15.96599424 18.11352539 17.44970703 C18.11344986 18.37051056 18.11337433 19.29131409 18.11329651 20.24002075 C18.10813522 21.23589203 18.10297394 22.23176331 18.09765625 23.2578125 C18.0962413 24.27600067 18.09482635 25.29418884 18.09336853 26.3432312 C18.087759 29.60385035 18.07520488 32.86440151 18.0625 36.125 C18.05748623 38.33203026 18.05292311 40.53906159 18.04882812 42.74609375 C18.03863622 48.16410994 18.01906262 53.58197862 18 59 C11.4 59 4.8 59 -2 59 C-2.04944455 51.4011327 -2.08574104 43.8023591 -2.10986328 36.20336914 C-2.11991967 33.61839161 -2.13356649 31.03342545 -2.15087891 28.44848633 C-2.17514271 24.73255608 -2.18648684 21.01677627 -2.1953125 17.30078125 C-2.20563507 16.14540359 -2.21595764 14.99002594 -2.22659302 13.79963684 C-2.22674408 12.71889389 -2.22689514 11.63815094 -2.22705078 10.5246582 C-2.231492 9.57645706 -2.23593323 8.62825592 -2.24050903 7.65132141 C-1.9797742 4.77703504 -1.19554424 2.61313188 0 0 Z " fill="#020202" transform="translate(488,295)"/>
<path d="M0 0 C7.38305016 0.11536016 11.43302334 3.26342185 16.625 8.125 C22.42805652 14.2541973 24.09256986 19.99335463 23.9453125 28.35546875 C22.99988831 33.25742841 20.05501859 36.12064714 16.375 39.3125 C17.365 39.9725 18.355 40.6325 19.375 41.3125 C16.405 41.3125 13.435 41.3125 10.375 41.3125 C10.375 50.2225 10.375 59.1325 10.375 68.3125 C10.045 68.3125 9.715 68.3125 9.375 68.3125 C9.045 52.4725 8.715 36.6325 8.375 20.3125 C7.715 20.3125 7.055 20.3125 6.375 20.3125 C4.70833333 18.64583333 3.04166667 16.97916667 1.375 15.3125 C-0.28824401 14.30681758 -1.95436253 13.30585201 -3.625 12.3125 C-6.31961986 8.27057022 -5.85700889 6.1073504 -5.625 1.3125 C-4.00318691 -0.30931309 -2.23605363 0.06417677 0 0 Z " fill="#F5F5F5" transform="translate(498.625,287.6875)"/>
<path d="M0 0 C3 1 3 1 4.1875 3.25 C4.99938294 5.99791147 5.16260121 8.15447889 5 11 C5.99 11 6.98 11 8 11 C8 11.66 8 12.32 8 13 C7.5153125 13.40089844 7.030625 13.80179687 6.53125 14.21484375 C3.61767943 17.61153189 4.4913919 22.07285099 4.56640625 26.33984375 C5.10112939 30.85367785 6.49240033 34.04714129 8.80859375 37.9140625 C10 40 10 40 11 44 C1.1 44 -8.8 44 -19 44 C-19 37.23220974 -19 37.23220974 -17.1875 33.4375 C-16.82269531 32.67308594 -16.45789063 31.90867187 -16.08203125 31.12109375 C-12.60321384 24.30160692 -12.60321384 24.30160692 -10 23 C-9.57074219 22.25363281 -9.14148438 21.50726563 -8.69921875 20.73828125 C-6.76074403 17.61444038 -4.5805365 15.59605124 -1.8125 13.1875 C-0.91144531 12.39730469 -0.01039063 11.60710937 0.91796875 10.79296875 C1.60503906 10.20128906 2.29210937 9.60960937 3 9 C2.68289063 8.22269531 2.36578125 7.44539063 2.0390625 6.64453125 C1.16698802 4.42500334 0.51589497 2.32152736 0 0 Z " fill="#111111" transform="translate(425,312)"/>
<path d="M0 0 C5.87968792 4.61607078 11.32028788 9.10623021 14.171875 16.16015625 C13.676875 17.64515625 13.676875 17.64515625 13.171875 19.16015625 C12.53572266 18.18175781 12.53572266 18.18175781 11.88671875 17.18359375 C5.35252123 7.4469214 -1.24122528 1.30688118 -12.828125 -1.58984375 C-23.93387271 -2.51532273 -34.49801308 -1.44461789 -43.73046875 5.375 C-51.32586841 11.83886898 -57.0371289 18.86919192 -58.01464844 29.11523438 C-58.41246598 36.1575912 -58.19230958 42.45532879 -55.828125 49.16015625 C-55.828125 50.48015625 -55.828125 51.80015625 -55.828125 53.16015625 C-55.168125 53.16015625 -54.508125 53.16015625 -53.828125 53.16015625 C-53.43625 54.02640625 -53.044375 54.89265625 -52.640625 55.78515625 C-47.94598641 64.52689707 -41.82924758 68.11633509 -32.828125 72.16015625 C-24.91589676 74.32924063 -15.45978783 74.09541119 -7.828125 71.16015625 C-7.11140625 70.90363281 -6.3946875 70.64710938 -5.65625 70.3828125 C0.09999504 68.13246838 4.35349486 65.05813792 8.171875 60.16015625 C8.666875 58.67515625 8.666875 58.67515625 9.171875 57.16015625 C9.831875 57.16015625 10.491875 57.16015625 11.171875 57.16015625 C11.295625 56.60328125 11.419375 56.04640625 11.546875 55.47265625 C12.171875 53.16015625 12.171875 53.16015625 13.171875 51.03515625 C14.67165953 47.08295076 14.67165953 47.08295076 15.171875 38.16015625 C3.621875 38.16015625 -7.928125 38.16015625 -19.828125 38.16015625 C-19.828125 37.50015625 -19.828125 36.84015625 -19.828125 36.16015625 C-7.288125 36.16015625 5.251875 36.16015625 18.171875 36.16015625 C18.171875 46.39942082 16.74442271 55.21446896 10.05859375 63.28125 C0.90275109 72.39918026 -8.01528529 76.36568604 -20.828125 76.53515625 C-33.1568899 76.40032159 -40.6805625 72.88856676 -49.578125 64.59765625 C-57.85502776 55.63101159 -61.27811948 47.14237806 -61.390625 34.97265625 C-61.40512695 34.1417749 -61.41962891 33.31089355 -61.43457031 32.45483398 C-61.33379466 26.25651659 -59.69633 21.61323793 -56.828125 16.16015625 C-56.46050049 15.44480713 -56.09287598 14.72945801 -55.71411133 13.99243164 C-50.64697642 4.49568351 -40.98923963 -1.27443008 -30.9765625 -4.421875 C-20.97459167 -6.36771296 -8.67380598 -5.64276605 0 0 Z " fill="#7D7D7D" transform="translate(156.828125,284.83984375)"/>
<path d="M0 0 C11.55 0 23.1 0 35 0 C35.66 0.66 36.32 1.32 37 2 C25.45 2 13.9 2 2 2 C2.33 26.09 2.66 50.18 3 75 C29.92600689 76.61489281 29.92600689 76.61489281 53.203125 65.83984375 C61.49515302 57.3495281 63.54786046 47.72461608 63.48974609 35.99243164 C63.13168173 26.76513504 59.57150173 18.54408424 53.24609375 11.82421875 C48.64932253 8.09084108 43.31295643 5.55661061 38 3 C41.84590099 1.89309152 43.37937518 2.10740066 47 4 C51.30430527 6.92967684 55.59738243 10.0302795 59 14 C59 14.66 59 15.32 59 16 C59.66 16 60.32 16 61 16 C63.89965796 19.74539154 64.71169393 23.56020293 65.5703125 28.109375 C65.8237423 30.00134672 65.8237423 30.00134672 67 31 C67.87166599 45.08075837 66.21984301 54.83016967 57 66 C53.60990118 69.49626058 50.8641049 72.05685112 46 73 C46 73.66 46 74.32 46 75 C33.27725732 81.15616581 10.89525592 78 0 78 C0 52.26 0 26.52 0 0 Z " fill="#868686" transform="translate(324,282)"/>
<path d="M0 0 C6.6 -0.0825 13.2 -0.165 20 -0.25 C22.06765625 -0.28641602 24.1353125 -0.32283203 26.265625 -0.36035156 C27.92707281 -0.37204745 29.58853219 -0.38223714 31.25 -0.390625 C32.09433594 -0.41108887 32.93867188 -0.43155273 33.80859375 -0.45263672 C40.8204917 -0.4567134 46.06974549 1.35683123 51.3125 6.0859375 C56.55076246 13.19154353 57.1510495 19.33016843 56 28 C54.7781479 33.26406956 51.71292086 37.1965201 48 41 C45.6875 41.875 45.6875 41.875 44 42 C44 42.66 44 43.32 44 44 C41.03 44.495 41.03 44.495 38 45 C39.5980458 48.29686926 41.46810334 51.34161331 43.43359375 54.43359375 C44.67704326 56.47086639 45.86750939 58.51709234 47.03515625 60.59765625 C47.39013184 61.22945801 47.74510742 61.86125977 48.11083984 62.51220703 C48.82280831 63.78535517 49.53025033 65.06104625 50.23291016 66.33935547 C52.00459405 69.76001049 52.00459405 69.76001049 55 72 C55.72693904 73.97888961 56.39816251 75.97954558 57 78 C53.5912072 76.6015209 52.12606165 75.14993067 50.25 72 C49.82203125 71.29875 49.3940625 70.5975 48.953125 69.875 C48 68 48 68 48 66 C47.01 65.67 46.02 65.34 45 65 C44.33950777 63.43567631 43.68004486 61.87091293 43.0246582 60.30444336 C40.61610709 54.88764232 38.35932741 50.13121183 34 46 C28.4210965 44.36954187 23.31604456 44.54236791 17.5 44.75 C9.8275 44.87375 9.8275 44.87375 2 45 C2 55.89 2 66.78 2 78 C1.34 78 0.68 78 0 78 C0 52.26 0 26.52 0 0 Z M2 2 C2 15.53 2 29.06 2 43 C10.353125 43.12375 10.353125 43.12375 18.875 43.25 C20.61120605 43.28641602 22.34741211 43.32283203 24.13623047 43.36035156 C36.10008144 43.54626296 36.10008144 43.54626296 47 39 C52.80906208 33.00045303 54.37844731 27.83903442 54.28125 19.6015625 C53.70727813 14.29232268 51.42716192 10.46680531 47.75 6.6875 C41.40711067 2.79527245 35.85776446 1.55038699 28.5625 1.70703125 C27.5425293 1.71156311 27.5425293 1.71156311 26.50195312 1.71618652 C24.00114407 1.73169087 21.50055413 1.77357238 19 1.8125 C13.39 1.874375 7.78 1.93625 2 2 Z " fill="#7D7D7D" transform="translate(188,282)"/>
<path d="M0 0 C9.9 0 19.8 0 30 0 C30 5.69369715 29.53992207 8.10829823 27 13 C26.01 13.66 25.02 14.32 24 15 C23.54625 15.804375 23.0925 16.60875 22.625 17.4375 C20.71865052 20.44366649 19.1135777 21.33459798 16 23 C14.989375 23.721875 13.97875 24.44375 12.9375 25.1875 C10 27 10 27 6 27 C5.97421875 25.84242188 5.9484375 24.68484375 5.921875 23.4921875 C5.86556651 21.95308872 5.8082198 20.41402767 5.75 18.875 C5.73582031 18.11445313 5.72164063 17.35390625 5.70703125 16.5703125 C5.4765589 11.22335409 4.27527001 8.37972153 1 4 C0.67 2.68 0.34 1.36 0 0 Z " fill="#080808" transform="translate(452,282)"/>
<path d="M0 0 C1.97265625 0.05834961 1.97265625 0.05834961 4 1 C5.30859375 3.18969727 5.30859375 3.18969727 6.4375 6.06640625 C7.06785156 7.63165039 7.06785156 7.63165039 7.7109375 9.22851562 C8.34902344 10.87883789 8.34902344 10.87883789 9 12.5625 C9.85153154 14.71068184 10.70565054 16.85784004 11.5625 19.00390625 C11.97363037 20.03700928 12.38476074 21.0701123 12.80834961 22.13452148 C14.10039512 25.24141314 15.55645112 28.2143223 17.10205078 31.20043945 C18.57849857 34.15935643 19.74277307 37.23136212 20.9375 40.3125 C23.05887957 45.72037263 25.32433558 51.02344946 27.7734375 56.29296875 C29.59133459 60.3050792 31.23712401 64.38506271 32.88671875 68.46875 C33.98628275 71.16660189 33.98628275 71.16660189 36 74 C36 75.32 36 76.64 36 78 C35.01 78 34.02 78 33 78 C32.82984375 77.43152344 32.6596875 76.86304688 32.484375 76.27734375 C31.26801958 72.40182835 30.0298202 68.80753674 27.9375 65.3125 C26 62 26 62 24 56 C8.82 56 -6.36 56 -22 56 C-23.32 59.63 -24.64 63.26 -26 67 C-27.02398743 69.09259817 -28.09414349 71.16475111 -29.25 73.1875 C-29.77078125 74.10917969 -30.2915625 75.03085937 -30.828125 75.98046875 C-31.21484375 76.64691406 -31.6015625 77.31335938 -32 78 C-32.66 77.67 -33.32 77.34 -34 77 C-32.73638364 73.76796313 -31.46283666 70.53992816 -30.1875 67.3125 C-29.83107422 66.40048828 -29.47464844 65.48847656 -29.10742188 64.54882812 C-27.346795 60.10687958 -25.48612043 56.08630292 -23 52 C-22.01551716 49.50707988 -21.08238833 47.02394294 -20.1875 44.5 C-17.50375094 37.1384502 -14.37260872 30.07425244 -11 23 C-8.08704853 16.73504351 -5.32678345 10.46484961 -2.89453125 3.99609375 C-2 2 -2 2 0 0 Z M0 4 C-3.9474864 12.42234251 -3.9474864 12.42234251 -7.6875 20.9375 C-9 24 -9 24 -10.5 26.75 C-11.85521014 29.68628864 -12.60942702 32.25249445 -13.375 35.375 C-14.54950786 39.99138118 -16.20586134 43.41390502 -19.01171875 47.24609375 C-20.32727064 49.24527866 -20.32727064 49.24527866 -20 53 C-5.81 53 8.38 53 23 53 C21.48040524 47.68141835 20.07710171 43.89463164 17.5625 39.125 C15.19087451 34.53645981 13.17701201 30.03561627 11.67578125 25.08984375 C9.82442875 19.36456289 7.12849524 14.11935584 4 9 C3.30177383 7.34630643 2.62501395 5.68272986 2 4 C1.34 4 0.68 4 0 4 Z " fill="#757575" transform="translate(280,282)"/>
<path d="M0 0 C8.64567259 0.15719405 13.13396501 4.40725369 19.265625 10.10546875 C21 12 21 12 21 14 C21.66 14 22.32 14 23 14 C25.89965796 17.74539154 26.71169393 21.56020293 27.5703125 26.109375 C27.8237423 28.00134672 27.8237423 28.00134672 29 29 C29.87166599 43.08075837 28.21984301 52.83016967 19 64 C15.60990118 67.49626058 12.8641049 70.05685112 8 71 C8 71.66 8 72.32 8 73 C3.05183286 75.80396138 -1.61682285 74.77350507 -7 74 C-7 73.67 -7 73.34 -7 73 C-6.02160156 72.79246094 -5.04320312 72.58492188 -4.03515625 72.37109375 C6.40482978 69.98698155 14.98531013 66.41446198 21.00390625 56.98046875 C25.90088262 47.24412749 26.83189246 35.10774275 24.12109375 24.58984375 C19.34193101 12.11354762 11.68322697 6.62200396 0 1 C0 0.67 0 0.34 0 0 Z " fill="#9B9B9B" transform="translate(362,284)"/>
<path d="M0 0 C6.15234375 0.5859375 6.15234375 0.5859375 8 1 C8.495 1.99 8.495 1.99 9 3 C-4.2 3 -17.4 3 -31 3 C-31 26.43 -31 49.86 -31 74 C-20.44 74 -9.88 74 1 74 C1 74.33 1 74.66 1 75 C-2.91559438 75.92169321 -6.55982396 76.12883848 -10.578125 76.1328125 C-12.44210937 76.13474609 -12.44210937 76.13474609 -14.34375 76.13671875 C-15.6328125 76.13285156 -16.921875 76.12898438 -18.25 76.125 C-20.20679688 76.13080078 -20.20679688 76.13080078 -22.203125 76.13671875 C-23.440625 76.13542969 -24.678125 76.13414062 -25.953125 76.1328125 C-27.08911133 76.13168457 -28.22509766 76.13055664 -29.39550781 76.12939453 C-32 76 -32 76 -33 75 C-33.09439978 72.73008113 -33.11742226 70.45718033 -33.11352539 68.18530273 C-33.11367142 67.47314606 -33.11381744 66.76098938 -33.1139679 66.0272522 C-33.1132687 63.66266888 -33.10547606 61.29816339 -33.09765625 58.93359375 C-33.09579209 57.29834537 -33.09436818 55.66309643 -33.09336853 54.02784729 C-33.08954318 49.71565215 -33.07971275 45.40349048 -33.06866455 41.09130859 C-33.05665627 35.9218032 -33.05204827 30.75228664 -33.04621124 25.5827713 C-33.036501 17.72182423 -33.01734458 9.86095065 -33 2 C-22.11 1.67 -11.22 1.34 0 1 C0 0.67 0 0.34 0 0 Z " fill="#D8D8D8" transform="translate(359,282)"/>
<path d="M0 0 C1.97265625 0.05834961 1.97265625 0.05834961 4 1 C5.30859375 3.18969727 5.30859375 3.18969727 6.4375 6.06640625 C7.06785156 7.63165039 7.06785156 7.63165039 7.7109375 9.22851562 C8.13632812 10.32873047 8.56171875 11.42894531 9 12.5625 C9.85153154 14.71068184 10.70565054 16.85784004 11.5625 19.00390625 C11.96855469 20.03016113 12.37460937 21.05641602 12.79296875 22.11376953 C13.87680638 24.70542173 15.06796562 27.16796784 16.375 29.65234375 C16.91125 30.75707031 17.4475 31.86179687 18 33 C17 35 17 35 15 36 C14.68546875 35.16597656 14.3709375 34.33195312 14.046875 33.47265625 C9.83051212 22.02891034 9.83051212 22.02891034 4.3125 11.1875 C3.04540165 9.07566941 2.58940389 7.35761556 2 5 C1.34 4.67 0.68 4.34 0 4 C-0.18949219 4.85658203 -0.18949219 4.85658203 -0.3828125 5.73046875 C-1.01732481 8.06370704 -1.86833015 10.1157747 -2.875 12.3125 C-4.13716694 15.09200121 -5.3804138 17.87300905 -6.5625 20.6875 C-8 24 -8 24 -9.5 26.75 C-10.85521014 29.68628864 -11.60942702 32.25249445 -12.375 35.375 C-13.54345567 39.91899426 -15.15055186 43.40095175 -17.81640625 47.24609375 C-19.06437296 49.09539096 -20.04056383 50.98827901 -21 53 C-22.24261796 48.73959558 -21.73954934 46.5119019 -19.9375 42.5 C-19.47214844 41.44941406 -19.00679688 40.39882813 -18.52734375 39.31640625 C-18.02332031 38.22199219 -17.51929688 37.12757813 -17 36 C-16.50628906 34.91589844 -16.01257813 33.83179688 -15.50390625 32.71484375 C-14.01517801 29.47057623 -12.50950145 26.23464597 -11 23 C-8.09286281 16.73201057 -5.32698146 10.46537622 -2.89453125 3.99609375 C-2 2 -2 2 0 0 Z " fill="#818181" transform="translate(280,282)"/>
<path d="M0 0 C5.87968792 4.61607078 11.32028788 9.10623021 14.171875 16.16015625 C13.676875 17.64515625 13.676875 17.64515625 13.171875 19.16015625 C12.53572266 18.18175781 12.53572266 18.18175781 11.88671875 17.18359375 C5.35252123 7.4469214 -1.24122528 1.30688118 -12.828125 -1.58984375 C-24.07699468 -2.52724956 -34.46311528 -1.33852111 -43.84765625 5.46484375 C-46.91626408 8.09162047 -49.34530722 10.97705654 -51.828125 14.16015625 C-52.488125 13.83015625 -53.148125 13.50015625 -53.828125 13.16015625 C-51.5935994 6.13910588 -45.5999015 2.20685668 -39.30859375 -1.20703125 C-27.34221025 -6.64449241 -11.34710552 -7.38188771 0 0 Z " fill="#838383" transform="translate(156.828125,284.83984375)"/>
<path d="M0 0 C0.66 0.33 1.32 0.66 2 1 C1.01 2.485 1.01 2.485 0 4 C-0.39958487 7.42017557 -0.5635348 10.87293041 1 14 C0.01 13.67 -0.98 13.34 -2 13 C-2.33 12.34 -2.66 11.68 -3 11 C-3.99 10.67 -4.98 10.34 -6 10 C-6.74193424 13.33214271 -7.13390726 16.43900503 -7.17358398 19.8503418 C-7.18707382 20.7844841 -7.20056366 21.7186264 -7.21446228 22.68107605 C-7.22490067 23.67706314 -7.23533905 24.67305023 -7.24609375 25.69921875 C-7.27900502 27.81575977 -7.31221709 29.93229612 -7.34570312 32.04882812 C-7.39328444 35.38025995 -7.4377831 38.71166933 -7.47680664 42.04321289 C-7.5163585 45.26207098 -7.56791142 48.48056116 -7.62109375 51.69921875 C-7.6295079 52.70127853 -7.63792206 53.70333832 -7.64659119 54.73576355 C-7.67155418 56.12279228 -7.67155418 56.12279228 -7.69702148 57.5378418 C-7.70732895 58.3532695 -7.71763641 59.1686972 -7.72825623 60.00883484 C-8 62 -8 62 -10 64 C-13.4375 64.3125 -13.4375 64.3125 -17 64 C-17.99 63.01 -18.98 62.02 -20 61 C-16.7 61.33 -13.4 61.66 -10 62 C-10.01047363 60.64318115 -10.02094727 59.2863623 -10.03173828 57.88842773 C-10.06804336 52.83604591 -10.09093874 47.78367553 -10.10986328 42.73120117 C-10.11989692 40.54791319 -10.1335269 38.36463857 -10.15087891 36.18139648 C-10.17524313 33.03626195 -10.18650971 29.89130571 -10.1953125 26.74609375 C-10.20563507 25.7760289 -10.21595764 24.80596405 -10.22659302 23.8065033 C-10.22781527 16.35924919 -9.78699905 10.27603657 -4.4375 4.625 C-3.81746094 3.95726562 -3.19742187 3.28953125 -2.55859375 2.6015625 C-1.71031051 1.72989301 -0.86005586 0.86005586 0 0 Z " fill="#7C7C7C" transform="translate(494,285)"/>
<path d="M0 0 C2.97 0 5.94 0 9 0 C9 0.33 9 0.66 9 1 C7.02 1.33 5.04 1.66 3 2 C2.67 27.08 2.34 52.16 2 78 C1.34 78 0.68 78 0 78 C0 52.26 0 26.52 0 0 Z " fill="#6C6C6C" transform="translate(188,282)"/>
<path d="M0 0 C12.54 0 25.08 0 38 0 C37.34 1.32 36.68 2.64 36 4 C36.4125 4.55945313 36.825 5.11890625 37.25 5.6953125 C41.36614294 11.41013596 44.97225518 17.26123742 48.33398438 23.43994141 C50.05388883 26.80812536 50.05388883 26.80812536 53 29 C53.72693904 30.97888961 54.39816251 32.97954558 55 35 C51.5912072 33.6015209 50.12606165 32.14993067 48.25 29 C47.82203125 28.29875 47.3940625 27.5975 46.953125 26.875 C46 25 46 25 46 23 C45.01 22.67 44.02 22.34 43 22 C42.33950777 20.43567631 41.68004486 18.87091293 41.0246582 17.30444336 C38.61610709 11.88764232 36.35932741 7.13121183 32 3 C26.46093918 1.38118606 21.22244396 1.537732 15.5 1.75 C13.99482536 1.76199213 12.48959709 1.76855044 10.984375 1.76953125 C7.32018395 1.78364569 3.66217119 1.87148044 0 2 C0 1.34 0 0.68 0 0 Z " fill="#7D7D7D" transform="translate(190,325)"/>
<path d="M0 0 C2 2 2 2 2.24050903 3.98684692 C2.2338472 5.20596268 2.2338472 5.20596268 2.22705078 6.44970703 C2.22689972 7.37051056 2.22674866 8.29131409 2.22659302 9.24002075 C2.21627045 10.23589203 2.20594788 11.23176331 2.1953125 12.2578125 C2.1924826 13.27600067 2.18965271 14.29418884 2.18673706 15.3432312 C2.1755177 18.603939 2.15040996 21.86437484 2.125 25.125 C2.11497247 27.33202729 2.10584623 29.53905888 2.09765625 31.74609375 C2.07727191 37.16425227 2.03812636 42.58182073 2 48 C-5.59 48 -13.18 48 -21 48 C-21 46.35 -21 44.7 -21 43 C-23.97 42.67 -26.94 42.34 -30 42 C-29.67 41.34 -29.34 40.68 -29 40 C-27.88625 40.020625 -26.7725 40.04125 -25.625 40.0625 C-22.16784079 40.26380718 -22.16784079 40.26380718 -20 39 C-20 41.31 -20 43.62 -20 46 C-13.4 46 -6.8 46 0 46 C0 30.82 0 15.64 0 0 Z " fill="#4C4C4C" transform="translate(506,308)"/>
<path d="M0 0 C0.66 0 1.32 0 2 0 C1.731875 0.639375 1.46375 1.27875 1.1875 1.9375 C0.795625 2.948125 0.40375 3.95875 0 5 C-0.26425781 5.58523438 -0.52851562 6.17046875 -0.80078125 6.7734375 C-2.86213122 11.87308055 -3.29126289 16.72269174 -3.3125 22.1875 C-3.31781738 22.86466064 -3.32313477 23.54182129 -3.32861328 24.23950195 C-3.26846535 28.5421895 -2.43015118 31.97164587 -1 36 C-1 37.32 -1 38.64 -1 40 C-0.34 40 0.32 40 1 40 C1.391875 40.86625 1.78375 41.7325 2.1875 42.625 C6.81521346 51.24212162 12.18924278 54.03726709 21 58 C20.67 58.99 20.34 59.98 20 61 C15.87413812 59.54381346 12.56560723 57.52563845 9 55 C8.175 54.443125 7.35 53.88625 6.5 53.3125 C2.89124225 49.97439908 0.46418406 46.23299563 -2 42 C-2.41894531 41.30519531 -2.83789062 40.61039062 -3.26953125 39.89453125 C-6.18332723 34.07723539 -6.41221064 28.3268097 -6.5 21.9375 C-6.51853027 21.09856201 -6.53706055 20.25962402 -6.55615234 19.39526367 C-6.4811401 11.88594934 -4.13560391 6.20340587 0 0 Z " fill="#7B7B7B" transform="translate(102,298)"/>
<path d="M0 0 C8.64567259 0.15719405 13.13396501 4.40725369 19.265625 10.10546875 C21 12 21 12 21 14 C21.66 14 22.32 14 23 14 C29.54205515 22.45015457 28.22215295 33.94140788 28 44 C27.67 44 27.34 44 27 44 C26.91363281 42.98421875 26.82726562 41.9684375 26.73828125 40.921875 C25.62270352 29.41528714 23.46001682 18.55036864 15.24609375 9.82421875 C10.64932253 6.09084108 5.31295643 3.55661061 0 1 C0 0.67 0 0.34 0 0 Z " fill="#767676" transform="translate(362,284)"/>
<path d="M0 0 C3 1 3 1 4.1875 3.25 C4.99938294 5.99791147 5.16260121 8.15447889 5 11 C5.99 11 6.98 11 8 11 C8 11.66 8 12.32 8 13 C7.27876953 13.58201172 7.27876953 13.58201172 6.54296875 14.17578125 C4.18223718 16.96682339 4.47705146 19.60027822 4.3125 23.1875 C4.24675781 24.45980469 4.18101562 25.73210937 4.11328125 27.04296875 C4.07589844 28.01878906 4.03851563 28.99460937 4 30 C3.67 30 3.34 30 3 30 C2.67 24.72 2.34 19.44 2 14 C1.16855469 14.83144531 0.33710938 15.66289062 -0.51953125 16.51953125 C-4.6796875 20.6796875 -8.83984375 24.83984375 -13 29 C-13.33 28.34 -13.66 27.68 -14 27 C-13.401875 26.443125 -12.80375 25.88625 -12.1875 25.3125 C-9.95155845 23.13765139 -9.95155845 23.13765139 -8.6875 20.65625 C-6.74275053 17.59507027 -4.54393196 15.56420053 -1.8125 13.1875 C-0.91144531 12.39730469 -0.01039063 11.60710937 0.91796875 10.79296875 C1.60503906 10.20128906 2.29210937 9.60960937 3 9 C2.68289063 8.22269531 2.36578125 7.44539063 2.0390625 6.64453125 C1.16698802 4.42500334 0.51589497 2.32152736 0 0 Z " fill="#4C4C4C" transform="translate(425,312)"/>
<path d="M0 0 C9.9 0 19.8 0 30 0 C30 6.08953448 29.60222533 7.89563493 27 13 C26.01 13.495 26.01 13.495 25 14 C25.99 10.04 26.98 6.08 28 2 C19.75 2 11.5 2 3 2 C2.67 2.99 2.34 3.98 2 5 C1.34 4.34 0.68 3.68 0 3 C0 2.01 0 1.02 0 0 Z " fill="#696969" transform="translate(452,282)"/>
<path d="M0 0 C0 0.33 0 0.66 0 1 C-0.76183594 1.14695312 -1.52367187 1.29390625 -2.30859375 1.4453125 C-13.31118407 3.8353883 -20.1060232 8.16156821 -27 17 C-27.66 16.67 -28.32 16.34 -29 16 C-26.74613886 8.91819586 -20.76918545 5.27760303 -14.62109375 1.5625 C-9.32245448 -1.09142715 -5.76859076 -1.25860162 0 0 Z " fill="#929292" transform="translate(132,282)"/>
<path d="M0 0 C11.55 0.33 23.1 0.66 35 1 C30.66641418 3.16679291 28.59314121 3.23437001 23.828125 3.1953125 C23.1457074 3.1924826 22.46328979 3.18965271 21.76019287 3.18673706 C19.58994693 3.17558098 17.42012029 3.15048557 15.25 3.125 C13.77474556 3.11496426 12.29948463 3.10583944 10.82421875 3.09765625 C7.21601058 3.07565687 3.60804625 3.04115883 0 3 C0 2.01 0 1.02 0 0 Z " fill="#686868" transform="translate(325,357)"/>
<path d="M0 0 C0.99 0.33 1.98 0.66 3 1 C1.75803878 2.15454162 0.50607155 3.29832562 -0.75 4.4375 C-1.79414063 5.39462891 -1.79414063 5.39462891 -2.859375 6.37109375 C-4.98792725 7.99081325 -6.39023405 8.58267256 -9 9 C-9 9.66 -9 10.32 -9 11 C-13.94816714 13.80396138 -18.61682285 12.77350507 -24 12 C-24 11.67 -24 11.34 -24 11 C-23.02160156 10.79246094 -22.04320312 10.58492188 -21.03515625 10.37109375 C-13.33429579 8.60508479 -7.64795542 6.85127593 -1.734375 1.29296875 C-1.16203125 0.86628906 -0.5896875 0.43960937 0 0 Z " fill="#7C7C7C" transform="translate(379,346)"/>
<path d="M0 0 C2 3 2 3 1.93359375 4.98046875 C0.79921638 10.02710825 -0.84674324 13.90822112 -3.78125 18.17578125 C-5.03498255 20.05236169 -6.02956982 21.96479225 -7 24 C-8.32220045 19.59803996 -7.61994082 17.26251273 -5.75 13.125 C-5.28722656 12.08085937 -4.82445312 11.03671875 -4.34765625 9.9609375 C-3.90292969 8.98382813 -3.45820313 8.00671875 -3 7 C-2.39189045 5.58502135 -1.78683565 4.16871723 -1.1875 2.75 C-0.795625 1.8425 -0.40375 0.935 0 0 Z " fill="#A0A0A0" transform="translate(266,311)"/>
<path d="M0 0 C3 2 3 2 4 4.0625 C4.89698316 6.35342991 4.89698316 6.35342991 8 7 C8 6.34 8 5.68 8 5 C8.66 5 9.32 5 10 5 C10.66 3.68 11.32 2.36 12 1 C12 2.65 12 4.3 12 6 C13.98 5.67 15.96 5.34 18 5 C16 8 16 8 12.9375 8.9375 C11.968125 9.288125 10.99875 9.63875 10 10 C9.03122943 12.03243548 9.03122943 12.03243548 9 14 C8.34 14 7.68 14 7 14 C7 12.35 7 10.7 7 9 C6.401875 8.773125 5.80375 8.54625 5.1875 8.3125 C2.40651597 6.64390958 1.4358084 4.8716168 0 2 C0 1.34 0 0.68 0 0 Z " fill="#464646" transform="translate(446,303)"/>
<path d="M0 0 C3.87493616 -0.05834395 7.74975836 -0.09371201 11.625 -0.125 C13.26662109 -0.15013672 13.26662109 -0.15013672 14.94140625 -0.17578125 C24.98079979 -0.23662606 24.98079979 -0.23662606 30 2 C30 2.33 30 2.66 30 3 C19.44 3 8.88 3 -2 3 C-1.34 2.67 -0.68 2.34 0 2 C0 1.34 0 0.68 0 0 Z " fill="#626262" transform="translate(500,282)"/>
<path d="M0 0 C1.116027 1.6740405 2.22473208 3.35324653 3.3046875 5.05078125 C8.02918771 11.85547184 13.44167777 14.83518527 21 18 C20.67 18.99 20.34 19.98 20 21 C15.87413812 19.54381346 12.56560723 17.52563845 9 15 C8.154375 14.401875 7.30875 13.80375 6.4375 13.1875 C3.4727591 10.52683509 0.68221792 7.65281604 -1 4 C-0.6328125 1.78125 -0.6328125 1.78125 0 0 Z " fill="#858585" transform="translate(102,338)"/>
<path d="M0 0 C0.33 0 0.66 0 1 0 C1.33 3.96 1.66 7.92 2 12 C3.98 11.67 5.96 11.34 8 11 C7.67 11.66 7.34 12.32 7 13 C7.99 13.66 8.98 14.32 10 15 C7.03 15 4.06 15 1 15 C1 23.91 1 32.82 1 42 C0.67 42 0.34 42 0 42 C0 28.14 0 14.28 0 0 Z " fill="#DDDDDD" transform="translate(508,314)"/>
<path d="M0 0 C0.99 0 1.98 0 3 0 C3.40992188 1.04800781 3.81984375 2.09601563 4.2421875 3.17578125 C4.78627439 4.55476009 5.33055538 5.93366236 5.875 7.3125 C6.27912109 8.34793945 6.27912109 8.34793945 6.69140625 9.40429688 C7.92173667 12.51013099 9.13988463 15.20982695 11 18 C11 19.32 11 20.64 11 22 C10.01 22 9.02 22 8 22 C7.82984375 21.43152344 7.6596875 20.86304688 7.484375 20.27734375 C6.26006412 16.37648089 5.02159195 12.80658762 2.875 9.3125 C1.03013178 6.05323282 0.36027836 3.69285315 0 0 Z " fill="#8E8E8E" transform="translate(305,338)"/>
<path d="M0 0 C1.093125 0.16371094 2.18625 0.32742188 3.3125 0.49609375 C8.54454258 1.15009907 13.73493662 1.10970402 19 1.0625 C19.96550781 1.05798828 20.93101562 1.05347656 21.92578125 1.04882812 C24.28392089 1.03715417 26.64192602 1.02078021 29 1 C24.37561795 4.08292137 20.5727479 4.18261764 15.1875 4.1875 C14.48818359 4.19974609 13.78886719 4.21199219 13.06835938 4.22460938 C8.66752053 4.23695972 5.04431584 3.76513019 1 2 C0.67 1.34 0.34 0.68 0 0 Z " fill="#6C6C6C" transform="translate(121,357)"/>
<path d="M0 0 C0.33 0.99 0.66 1.98 1 3 C-9.94830827 14.28007519 -9.94830827 14.28007519 -17 16 C-17.66 15.34 -18.32 14.68 -19 14 C-18.38253906 13.74347656 -17.76507813 13.48695313 -17.12890625 13.22265625 C-10.01332863 10.00602527 -5.20573087 5.77157118 0 0 Z " fill="#727272" transform="translate(167,343)"/>
<path d="M0 0 C6.25085799 1.15808306 11.97858831 6.23388245 16 11 C17.8125 14.0625 17.8125 14.0625 19 17 C18.67 17.99 18.34 18.98 18 20 C17.57589844 19.34773438 17.15179688 18.69546875 16.71484375 18.0234375 C12.96488747 12.43559056 9.25128894 8.15943679 4 4 C2.64946454 2.68409365 1.30693833 1.35921586 0 0 Z " fill="#808080" transform="translate(152,284)"/>
<path d="M0 0 C3.77492776 3.36123705 4.44029344 7.12347619 5 12 C5.2192256 17.33230166 5.11780006 22.66627506 5 28 C4.67 28 4.34 28 4 28 C3.89042969 26.92621094 3.78085937 25.85242188 3.66796875 24.74609375 C3.50838413 23.3098322 3.34819558 21.87363767 3.1875 20.4375 C3.11724609 19.73302734 3.04699219 19.02855469 2.97460938 18.30273438 C2.55237424 14.63773341 1.93062799 11.53099314 0.40625 8.15625 C-1.10404274 4.76648185 -1.15115188 3.45345564 0 0 Z " fill="#757575" transform="translate(385,300)"/>
<path d="M0 0 C3.64761785 3.20119298 5.40421938 7.34863909 7.59765625 11.6015625 C8.77393962 14.11463732 8.77393962 14.11463732 11 15 C11.72693904 16.97888961 12.39816251 18.97954558 13 21 C9.5912072 19.6015209 8.12606165 18.14993067 6.25 15 C5.82203125 14.29875 5.3940625 13.5975 4.953125 12.875 C4 11 4 11 4 9 C3.01 8.67 2.02 8.34 1 8 C0.67 5.36 0.34 2.72 0 0 Z " fill="#777777" transform="translate(232,339)"/>
<path d="M0 0 C3 1 3 1 4.1875 3.25 C4.99938294 5.99791147 5.16260121 8.15447889 5 11 C5.99 11 6.98 11 8 11 C8 11.66 8 12.32 8 13 C7.51917969 13.38800781 7.03835938 13.77601563 6.54296875 14.17578125 C4.18223718 16.96682339 4.47705146 19.60027822 4.3125 23.1875 C4.24675781 24.45980469 4.18101562 25.73210937 4.11328125 27.04296875 C4.07589844 28.01878906 4.03851563 28.99460937 4 30 C3.67 30 3.34 30 3 30 C3 24.06 3 18.12 3 12 C2.34 11.67 1.68 11.34 1 11 C1.391875 10.443125 1.78375 9.88625 2.1875 9.3125 C2.455625 8.549375 2.72375 7.78625 3 7 C1.68134288 4.35774595 1.68134288 4.35774595 0 2 C0 1.34 0 0.68 0 0 Z " fill="#575757" transform="translate(425,312)"/>
<path d="M0 0 C0.99 0.33 1.98 0.66 3 1 C0.86233829 8.244298 -2.22684019 14.46718285 -6 21 C-6.66 20.67 -7.32 20.34 -8 20 C-5.36 13.4 -2.72 6.8 0 0 Z " fill="#858585" transform="translate(254,339)"/>
<path d="M0 0 C0.33 0 0.66 0 1 0 C1 2.31 1 4.62 1 7 C7.6 7 14.2 7 21 7 C21 7.33 21 7.66 21 8 C14.07 8 7.14 8 0 8 C0 6.68 0 5.36 0 4 C-2.97 3.67 -5.94 3.34 -9 3 C-8.67 2.34 -8.34 1.68 -8 1 C-6.865625 1.020625 -5.73125 1.04125 -4.5625 1.0625 C-1.18424326 1.41577477 -1.18424326 1.41577477 0 0 Z " fill="#202020" transform="translate(485,347)"/>
<path d="M0 0 C3.56209836 2.37473224 4.05242076 3.90034734 5.625 7.8125 C6.05039062 8.85019531 6.47578125 9.88789063 6.9140625 10.95703125 C7.87539689 13.65084236 8.53164652 16.18467517 9 19 C8.34 19 7.68 19 7 19 C0 5.48275862 0 5.48275862 0 0 Z " fill="#797979" transform="translate(296,316)"/>
<path d="M0 0 C0.99 0 1.98 0 3 0 C3.96189997 1.72718516 4.91936508 3.45684058 5.875 5.1875 C6.67550781 6.63189453 6.67550781 6.63189453 7.4921875 8.10546875 C8.8423678 10.69739518 9.97098329 13.26761098 11 16 C10.34 16 9.68 16 9 16 C7.3633245 13.73701547 5.85434489 11.48732888 4.375 9.125 C3.95476562 8.47402344 3.53453125 7.82304687 3.1015625 7.15234375 C0 2.26838981 0 2.26838981 0 0 Z " fill="#666666" transform="translate(222,326)"/>
<path d="M0 0 C0.66 0.33 1.32 0.66 2 1 C0.95199219 1.93972656 0.95199219 1.93972656 -0.1171875 2.8984375 C-1.02726562 3.71570313 -1.93734375 4.53296875 -2.875 5.375 C-3.77992187 6.18710937 -4.68484375 6.99921875 -5.6171875 7.8359375 C-7.10896183 9.19076205 -8.57505435 10.57505435 -10 12 C-10.33 11.01 -10.66 10.02 -11 9 C-9.33333333 7.33333333 -7.66666667 5.66666667 -6 4 C-5.46375 3.4225 -4.9275 2.845 -4.375 2.25 C-3 1 -3 1 0 0 Z " fill="#848484" transform="translate(114,287)"/>
<path d="M0 0 C0.598125 0.226875 1.19625 0.45375 1.8125 0.6875 C0.3275 2.1725 0.3275 2.1725 -1.1875 3.6875 C-0.1975 4.6775 0.7925 5.6675 1.8125 6.6875 C-0.8275 6.6875 -3.4675 6.6875 -6.1875 6.6875 C-5.78066505 4.32785727 -5.28935661 2.82815912 -3.875 0.875 C-2.1875 -0.3125 -2.1875 -0.3125 0 0 Z " fill="#565656" transform="translate(407.1875,284.3125)"/>
<path d="M0 0 C0.66 0 1.32 0 2 0 C1.40895235 4.84659077 0.02055843 8.60748167 -2 13 C-4 10 -4 10 -3.57421875 7.7734375 C-3.28160156 6.98195313 -2.98898437 6.19046875 -2.6875 5.375 C-2.40261719 4.57835937 -2.11773437 3.78171875 -1.82421875 2.9609375 C-1 1 -1 1 0 0 Z " fill="#8B8B8B" transform="translate(262,322)"/>
<path d="M0 0 C-0.639375 0.309375 -1.27875 0.61875 -1.9375 0.9375 C-3.93610821 1.8345163 -3.93610821 1.8345163 -5 3 C-6.69141656 2.91036938 -8.37959602 2.75422324 -10.0625 2.5625 C-11.44115234 2.40974609 -11.44115234 2.40974609 -12.84765625 2.25390625 C-13.55792969 2.17011719 -14.26820313 2.08632813 -15 2 C-15 1.67 -15 1.34 -15 1 C-13.25559202 0.44058641 -11.50414743 -0.09691897 -9.75 -0.625 C-8.77546875 -0.92664063 -7.8009375 -1.22828125 -6.796875 -1.5390625 C-3.68321539 -2.05220752 -2.58430745 -1.71056541 0 0 Z " fill="#9A9A9A" transform="translate(370,356)"/>
<path d="M0 0 C1.46224799 0.42423244 2.91973412 0.86490245 4.375 1.3125 C5.18710938 1.55613281 5.99921875 1.79976563 6.8359375 2.05078125 C9 3 9 3 11 6 C7.41936487 6 5.52512014 5.65592475 2.25 4.5 C1.45078125 4.2215625 0.6515625 3.943125 -0.171875 3.65625 C-0.77515625 3.4396875 -1.3784375 3.223125 -2 3 C-1.34 2.01 -0.68 1.02 0 0 Z " fill="#9A9A9A" transform="translate(227,282)"/>
<path d="M0 0 C3.44216672 2.6598561 3.99504674 5.90288286 5 10 C4.01 10.33 3.02 10.66 2 11 C1.47007308 9.54494642 0.9513211 8.08581873 0.4375 6.625 C0.14746094 5.81289063 -0.14257812 5.00078125 -0.44140625 4.1640625 C-1 2 -1 2 0 0 Z " fill="#999999" transform="translate(293,307)"/>
<path d="M0 0 C0.66 0.33 1.32 0.66 2 1 C1.01 2.485 1.01 2.485 0 4 C-0.39958487 7.42017557 -0.5635348 10.87293041 1 14 C0.01 13.67 -0.98 13.34 -2 13 C-3.31079943 10.10213399 -3.89456353 7.17419263 -4 4 C-2.125 1.4375 -2.125 1.4375 0 0 Z " fill="#8C8C8C" transform="translate(494,285)"/>
<path d="M0 0 C2.96052484 3.36423277 3.92289822 6.69159287 5 11 C4.01 11 3.02 11 2 11 C-1.07692308 4.6 -1.07692308 4.6 -0.6875 1.5625 C-0.460625 1.046875 -0.23375 0.53125 0 0 Z " fill="#999999" transform="translate(283,283)"/>
<path d="M0 0 C0.69222656 0.08765625 1.38445312 0.1753125 2.09765625 0.265625 C3.9375 0.75 3.9375 0.75 5.9375 2.75 C5.6075 3.41 5.2775 4.07 4.9375 4.75 C-1.0025 3.265 -1.0025 3.265 -7.0625 1.75 C-3.88217735 -0.3702151 -3.51682601 -0.4995865 0 0 Z " fill="#919191" transform="translate(148.0625,281.25)"/>
<path d="M0 0 C0.66 0.66 1.32 1.32 2 2 C0.35 2.66 -1.3 3.32 -3 4 C-3 4.66 -3 5.32 -3 6 C-5.31 5.67 -7.62 5.34 -10 5 C-6.7321794 2.82145293 -3.61941735 1.50239966 0 0 Z " fill="#878787" transform="translate(235,320)"/>
<path d="M0 0 C0.33 1.32 0.66 2.64 1 4 C-0.32 4.99 -1.64 5.98 -3 7 C-1.68 7.66 -0.36 8.32 1 9 C-1.97 9 -4.94 9 -8 9 C-6.8553125 7.88625 -6.8553125 7.88625 -5.6875 6.75 C-3.5606298 4.5736677 -1.7440044 2.47832204 0 0 Z " fill="#515151" transform="translate(521,319)"/>
<path d="M0 0 C4 4.5 4 4.5 4 9 C3.01 9 2.02 9 1 9 C0.63877119 7.68942607 0.28619689 6.37646376 -0.0625 5.0625 C-0.35833984 3.96615234 -0.35833984 3.96615234 -0.66015625 2.84765625 C-0.77230469 2.23792969 -0.88445312 1.62820313 -1 1 C-0.67 0.67 -0.34 0.34 0 0 Z " fill="#8F8F8F" transform="translate(312,351)"/>
<path d="M0 0 C0.66 0 1.32 0 2 0 C2 1.65 2 3.3 2 5 C1.01 5 0.02 5 -1 5 C-1.33 6.65 -1.66 8.3 -2 10 C-3.01136941 7.26930259 -3.04557718 6.13998707 -2.125 3.3125 C-1 1 -1 1 0 0 Z " fill="#373737" transform="translate(489,290)"/>
<path d="M0 0 C1.5625 1.0625 1.5625 1.0625 3 3 C2.6875 6.6875 2.6875 6.6875 2 10 C0.04224922 7.06337384 -0.56073149 5.4262944 -1 2 C-0.67 1.34 -0.34 0.68 0 0 Z " fill="#959595" transform="translate(385,300)"/>
<path d="M0 0 C3.15330554 0.60694155 5.18888867 1.6416665 7.75 3.5625 C8.67039063 4.24505859 8.67039063 4.24505859 9.609375 4.94140625 C10.29773438 5.46541016 10.29773438 5.46541016 11 6 C10.01 6.33 9.02 6.66 8 7 C5.95703125 5.8203125 5.95703125 5.8203125 3.8125 4.125 C3.09707031 3.57070313 2.38164062 3.01640625 1.64453125 2.4453125 C1.10183594 1.96835937 0.55914062 1.49140625 0 1 C0 0.67 0 0.34 0 0 Z " fill="#787878" transform="translate(152,284)"/>
<path d="M0 0 C1 3 1 3 0.22265625 5.04296875 C-0.16019531 5.75066406 -0.54304688 6.45835937 -0.9375 7.1875 C-1.31777344 7.90292969 -1.69804687 8.61835938 -2.08984375 9.35546875 C-2.54037109 10.16951172 -2.54037109 10.16951172 -3 11 C-3.33 11 -3.66 11 -4 11 C-4.56638908 6.18569279 -2.82561627 3.79692186 0 0 Z " fill="#787878" transform="translate(271,303)"/>
<path d="M0 0 C3.3 0.66 6.6 1.32 10 2 C10 2.66 10 3.32 10 4 C6.04 3.67 2.08 3.34 -2 3 C-1.34 2.01 -0.68 1.02 0 0 Z " fill="#444444" transform="translate(496,285)"/>
<path d="M0 0 C2.72426311 2.35277269 3.8141763 4.62496331 5 8 C4.01 8.33 3.02 8.66 2 9 C0 2.25 0 2.25 0 0 Z " fill="#959595" transform="translate(232,339)"/>
<path d="M0 0 C0.33 0.99 0.66 1.98 1 3 C-0.8125 6.1875 -0.8125 6.1875 -3 9 C-3.66 9 -4.32 9 -5 9 C-3.7508258 5.54074837 -2.32472205 2.85306797 0 0 Z " fill="#6F6F6F" transform="translate(241,312)"/>
<path d="M0 0 C-0.4640625 0.8353125 -0.4640625 0.8353125 -0.9375 1.6875 C-2.05761821 4.12540433 -2.56037364 6.36224186 -3 9 C-3.66 8.67 -4.32 8.34 -5 8 C-5.1875 5.125 -5.1875 5.125 -5 2 C-2 0 -2 0 0 0 Z " fill="#B8B8B8" transform="translate(460,311)"/>
<path d="M0 0 C0 0.33 0 0.66 0 1 C-3.63 1.33 -7.26 1.66 -11 2 C-11 1.34 -11 0.68 -11 0 C-6.94952424 -1.35015859 -4.2079832 -0.62084998 0 0 Z " fill="#8B8B8B" transform="translate(132,282)"/>
<path d="M0 0 C-0.33 0.33 -0.66 0.66 -1 1 C-0.01 1.66 0.98 2.32 2 3 C-0.64 3 -3.28 3 -6 3 C-6 2.01 -6 1.02 -6 0 C-2.25 -1.125 -2.25 -1.125 0 0 Z " fill="#A6A6A6" transform="translate(516,326)"/>
<path d="M0 0 C0.86625 0.556875 0.86625 0.556875 1.75 1.125 C-0.23 1.785 -2.21 2.445 -4.25 3.125 C-4.91 2.465 -5.57 1.805 -6.25 1.125 C-2.80384615 -1.09038462 -2.80384615 -1.09038462 0 0 Z " fill="#888888" transform="translate(154.25,355.875)"/>
<path d="M0 0 C0.66 0 1.32 0 2 0 C4.125 4.625 4.125 4.625 3 8 C0 3.375 0 3.375 0 0 Z " fill="#6C6C6C" transform="translate(308,344)"/>
<path d="M0 0 C0.66 0 1.32 0 2 0 C1.67 1.65 1.34 3.3 1 5 C-0.32 5.33 -1.64 5.66 -3 6 C-3 5.34 -3 4.68 -3 4 C-2.34 4 -1.68 4 -1 4 C-0.67 2.68 -0.34 1.36 0 0 Z " fill="#8D8D8D" transform="translate(169,338)"/>
</svg>
